<svg width="132" height="36" viewBox="0 0 132 36" fill="none" xmlns="http://www.w3.org/2000/svg">
<rect width="132" height="36" rx="5" fill="#C9FEA9"/>
<path d="M33.5034 10.2909C34.0027 11.5789 33.3039 12.4609 31.9517 13.3312C30.8609 14.0312 29.4714 14.7919 27.999 16.0904C26.5547 17.3632 25.1465 18.8974 23.8947 20.4071C22.8237 21.7031 21.804 23.0408 20.838 24.4169C20.355 25.1064 19.6795 26.1354 19.6795 26.1354C19.4371 26.5099 19.1033 26.8164 18.7095 27.0261C18.3158 27.2357 17.8751 27.3415 17.429 27.3336C16.9833 27.3309 16.5456 27.2143 16.1576 26.9948C15.7696 26.7753 15.4442 26.4601 15.2124 26.0794C14.0469 24.1229 13.1485 23.3494 12.7355 23.0729C11.6307 22.3286 10.3334 22.2212 10.3334 20.4899C10.3334 19.1144 11.4942 18.0002 12.9257 18.0002C13.9372 18.0376 14.8764 18.4354 15.7094 18.9954C16.2414 19.3524 16.8049 19.8261 17.3905 20.4479C18.1754 19.3768 18.9917 18.3291 19.8382 17.3061C21.188 15.6786 22.7817 13.9321 24.4909 12.4247C26.1709 10.9431 28.1134 9.55589 30.1725 8.82323C31.5142 8.34489 33.0052 9.00173 33.5034 10.2909Z" fill="#6AFF0F"/>
<path d="M52.647 24.17C51.8083 24.17 51.032 24.017 50.318 23.711C49.6153 23.3937 49.0033 22.9573 48.482 22.402C47.9607 21.8353 47.5583 21.1723 47.275 20.413C46.9917 19.6423 46.85 18.798 46.85 17.88C46.85 16.962 46.9917 16.1233 47.275 15.364C47.5583 14.5933 47.955 13.9303 48.465 13.375C48.9863 12.8083 49.5983 12.372 50.301 12.066C51.015 11.7487 51.7913 11.59 52.63 11.59C53.548 11.59 54.3697 11.777 55.095 12.151C55.8317 12.525 56.4323 13.052 56.897 13.732C57.373 14.412 57.6677 15.2053 57.781 16.112H56.387C56.251 15.1033 55.8487 14.31 55.18 13.732C54.5227 13.1427 53.6783 12.848 52.647 12.848C51.7743 12.848 51.0093 13.0633 50.352 13.494C49.6947 13.9133 49.1847 14.5027 48.822 15.262C48.4593 16.01 48.278 16.8827 48.278 17.88C48.278 18.8773 48.4593 19.7557 48.822 20.515C49.1847 21.263 49.6947 21.8523 50.352 22.283C51.0093 22.7023 51.7687 22.912 52.63 22.912C53.684 22.912 54.5453 22.6173 55.214 22.028C55.894 21.4387 56.2963 20.6453 56.421 19.648H57.815C57.7017 20.5547 57.407 21.348 56.931 22.028C56.4663 22.708 55.8657 23.235 55.129 23.609C54.4037 23.983 53.5763 24.17 52.647 24.17ZM63.5148 24.17C62.6648 24.17 61.9168 23.9717 61.2708 23.575C60.6248 23.1783 60.1204 22.64 59.7578 21.96C59.4064 21.2687 59.2308 20.4923 59.2308 19.631C59.2308 18.7583 59.4121 17.9877 59.7748 17.319C60.1374 16.6503 60.6361 16.1233 61.2708 15.738C61.9168 15.3527 62.6648 15.16 63.5148 15.16C64.3761 15.16 65.1241 15.3527 65.7588 15.738C66.4048 16.1233 66.9034 16.6503 67.2548 17.319C67.6174 17.9877 67.7988 18.7583 67.7988 19.631C67.7988 20.4923 67.6174 21.2687 67.2548 21.96C66.9034 22.64 66.4048 23.1783 65.7588 23.575C65.1241 23.9717 64.3761 24.17 63.5148 24.17ZM63.5148 23.014C64.1041 23.014 64.6141 22.8723 65.0448 22.589C65.4754 22.2943 65.8098 21.892 66.0478 21.382C66.2858 20.872 66.4048 20.2827 66.4048 19.614C66.4048 18.6167 66.1384 17.8177 65.6058 17.217C65.0844 16.6163 64.3874 16.316 63.5148 16.316C62.6534 16.316 61.9564 16.6163 61.4238 17.217C60.8911 17.8177 60.6248 18.6167 60.6248 19.614C60.6248 20.2827 60.7438 20.872 60.9818 21.382C61.2198 21.892 61.5541 22.2943 61.9848 22.589C62.4268 22.8723 62.9368 23.014 63.5148 23.014ZM69.8385 24V15.33H71.1135V17.37H71.1985V24H69.8385ZM75.6865 24V18.254C75.6865 17.5967 75.5392 17.115 75.2445 16.809C74.9498 16.503 74.5248 16.35 73.9695 16.35C73.4482 16.35 72.9778 16.4747 72.5585 16.724C72.1392 16.9733 71.8048 17.319 71.5555 17.761C71.3175 18.203 71.1985 18.7187 71.1985 19.308L70.9775 17.251C71.2722 16.605 71.7142 16.095 72.3035 15.721C72.8928 15.347 73.5332 15.16 74.2245 15.16C75.0632 15.16 75.7432 15.4093 76.2645 15.908C76.7858 16.3953 77.0465 17.0583 77.0465 17.897V24H75.6865ZM81.5345 24V18.254C81.5345 17.5967 81.3872 17.115 81.0925 16.809C80.7978 16.503 80.3728 16.35 79.8175 16.35C79.2962 16.35 78.8258 16.4747 78.4065 16.724C77.9872 16.9733 77.6528 17.319 77.4035 17.761C77.1655 18.203 77.0465 18.7187 77.0465 19.308L76.7065 17.251C77.0012 16.605 77.4545 16.095 78.0665 15.721C78.6785 15.347 79.3358 15.16 80.0385 15.16C80.8772 15.16 81.5628 15.4093 82.0955 15.908C82.6282 16.3953 82.8945 17.0583 82.8945 17.897V24H81.5345ZM89.7944 24.153C88.9784 24.153 88.2927 23.9547 87.7374 23.558C87.1821 23.1613 86.8024 22.6003 86.5984 21.875L86.8704 21.841V27.485H85.5104V15.33H86.7854V17.353L86.5984 17.302C86.8137 16.6333 87.2217 16.112 87.8224 15.738C88.4231 15.3527 89.1201 15.16 89.9134 15.16C90.6841 15.16 91.3527 15.347 91.9194 15.721C92.4974 16.095 92.9451 16.6163 93.2624 17.285C93.5797 17.9537 93.7384 18.7357 93.7384 19.631C93.7384 20.5377 93.5741 21.331 93.2454 22.011C92.9167 22.691 92.4577 23.218 91.8684 23.592C91.2791 23.966 90.5877 24.153 89.7944 24.153ZM89.5904 22.963C90.4517 22.963 91.1261 22.6683 91.6134 22.079C92.1007 21.4783 92.3444 20.6623 92.3444 19.631C92.3444 18.611 92.1007 17.812 91.6134 17.234C91.1261 16.6447 90.4517 16.35 89.5904 16.35C88.7291 16.35 88.0491 16.6503 87.5504 17.251C87.0517 17.8403 86.8024 18.6507 86.8024 19.682C86.8024 20.6907 87.0517 21.4897 87.5504 22.079C88.0491 22.6683 88.7291 22.963 89.5904 22.963ZM95.82 24V11.76H97.18V24H95.82ZM103.457 24.17C102.63 24.17 101.899 23.9773 101.264 23.592C100.629 23.1953 100.131 22.657 99.7679 21.977C99.4053 21.297 99.2239 20.515 99.2239 19.631C99.2239 18.747 99.3996 17.9707 99.7509 17.302C100.114 16.622 100.618 16.095 101.264 15.721C101.91 15.347 102.652 15.16 103.491 15.16C104.296 15.16 104.993 15.3357 105.582 15.687C106.183 16.0383 106.642 16.5313 106.959 17.166C107.288 17.8007 107.452 18.5487 107.452 19.41C107.452 19.5233 107.446 19.631 107.435 19.733C107.435 19.835 107.424 19.9483 107.401 20.073H100.244V18.934H106.568L106.126 19.563C106.126 18.5203 105.894 17.7213 105.429 17.166C104.976 16.5993 104.33 16.316 103.491 16.316C102.63 16.316 101.933 16.6163 101.4 17.217C100.879 17.8063 100.618 18.6053 100.618 19.614C100.618 20.6453 100.879 21.4727 101.4 22.096C101.933 22.708 102.641 23.014 103.525 23.014C104.08 23.014 104.568 22.895 104.987 22.657C105.406 22.4077 105.712 22.0563 105.905 21.603H107.197C106.914 22.3963 106.438 23.0253 105.769 23.49C105.112 23.9433 104.341 24.17 103.457 24.17ZM112.868 24.153C111.905 24.153 111.202 23.9377 110.76 23.507C110.329 23.065 110.114 22.4303 110.114 21.603V13.307L111.474 12.797V21.586C111.474 22.0733 111.599 22.4303 111.848 22.657C112.097 22.8837 112.505 22.997 113.072 22.997C113.299 22.997 113.491 22.9857 113.65 22.963C113.82 22.929 113.956 22.8893 114.058 22.844V24C113.945 24.0453 113.78 24.0793 113.565 24.102C113.361 24.136 113.129 24.153 112.868 24.153ZM108.329 16.486V15.33H114.058V16.486H108.329ZM119.179 24.17C118.351 24.17 117.62 23.9773 116.986 23.592C116.351 23.1953 115.852 22.657 115.49 21.977C115.127 21.297 114.946 20.515 114.946 19.631C114.946 18.747 115.121 17.9707 115.473 17.302C115.835 16.622 116.34 16.095 116.986 15.721C117.632 15.347 118.374 15.16 119.213 15.16C120.017 15.16 120.714 15.3357 121.304 15.687C121.904 16.0383 122.363 16.5313 122.681 17.166C123.009 17.8007 123.174 18.5487 123.174 19.41C123.174 19.5233 123.168 19.631 123.157 19.733C123.157 19.835 123.145 19.9483 123.123 20.073H115.966V18.934H122.29L121.848 19.563C121.848 18.5203 121.615 17.7213 121.151 17.166C120.697 16.5993 120.051 16.316 119.213 16.316C118.351 16.316 117.654 16.6163 117.122 17.217C116.6 17.8063 116.34 18.6053 116.34 19.614C116.34 20.6453 116.6 21.4727 117.122 22.096C117.654 22.708 118.363 23.014 119.247 23.014C119.802 23.014 120.289 22.895 120.709 22.657C121.128 22.4077 121.434 22.0563 121.627 21.603H122.919C122.635 22.3963 122.159 23.0253 121.491 23.49C120.833 23.9433 120.063 24.17 119.179 24.17Z" fill="black"/>
</svg>
