<svg width="22" height="22" viewBox="0 0 22 22" fill="none" xmlns="http://www.w3.org/2000/svg">
<path d="M8.39375 0.283691L7.47969 7.57791H9.48594L11.7875 0.707441L8.39375 0.283691ZM12.6922 0.658691L10.3766 7.57791L17.3937 7.5826L19.0016 2.77275L12.6922 0.658691ZM7.4375 1.15744L4.06719 1.52494L4.72812 7.57791H6.63594L7.4375 1.15744ZM2 6.17166C1.46094 6.17166 1.10094 6.58416 1.00297 6.97791C0.954219 7.17479 0.981875 7.33416 1.03719 7.42322C1.09203 7.5076 1.16797 7.57791 1.4375 7.57791H3.87969L3.725 6.17166H2ZM18.7531 6.17166L18.2844 7.57791H20.5109C20.3891 7.34354 20.3375 7.0951 20.3703 6.84666C20.4031 6.60291 20.4969 6.3826 20.6188 6.17166H18.7531ZM0.921875 8.42166V19.9951C0.921875 20.2342 1.05266 20.5154 1.26734 20.731C1.4825 20.9467 1.76562 21.0779 2 21.0779L20 21.0826C20.2344 21.0826 20.5156 20.9513 20.7313 20.7357C20.9469 20.5201 21.0781 20.2388 21.0781 19.9998V16.6717H17C14.9375 16.6717 14.9375 12.8279 17 12.8279H21.0781V8.42635L0.921875 8.42166ZM17 13.6717C16.0625 13.6717 16.0625 15.8279 17 15.8279H18.0453C17.6234 15.6498 17.3281 15.2326 17.3281 14.7498C17.3281 14.267 17.6234 13.8498 18.0453 13.6717H17ZM18.9547 13.6717C19.3766 13.8498 19.6719 14.267 19.6719 14.7498C19.6719 15.2326 19.3766 15.6498 18.9547 15.8279H21.8281V13.6717H18.9547ZM18.5 14.4217C18.3125 14.4217 18.1719 14.5623 18.1719 14.7498C18.1719 14.9373 18.3125 15.0779 18.5 15.0779C18.6875 15.0779 18.8281 14.9373 18.8281 14.7498C18.8281 14.5623 18.6875 14.4217 18.5 14.4217Z" fill="black"/>
</svg>
