<svg width="20" height="14" viewBox="0 0 20 14" fill="none" xmlns="http://www.w3.org/2000/svg">
<path d="M18.3333 5.33317H1.66667M1.66667 3.83317L1.66667 10.1665C1.66667 11.0999 1.66667 11.5666 1.84833 11.9232C2.00812 12.2368 2.26308 12.4917 2.57669 12.6515C2.93321 12.8332 3.39992 12.8332 4.33334 12.8332L15.6667 12.8332C16.6001 12.8332 17.0668 12.8332 17.4233 12.6515C17.7369 12.4917 17.9919 12.2368 18.1517 11.9232C18.3333 11.5666 18.3333 11.0999 18.3333 10.1665V3.83317C18.3333 2.89975 18.3333 2.43304 18.1517 2.07652C17.9919 1.76292 17.7369 1.50795 17.4233 1.34816C17.0668 1.16651 16.6001 1.16651 15.6667 1.1665L4.33334 1.1665C3.39992 1.1665 2.93321 1.1665 2.57669 1.34816C2.26308 1.50795 2.00812 1.76292 1.84833 2.07652C1.66667 2.43304 1.66667 2.89975 1.66667 3.83317Z" stroke="white" stroke-width="2" stroke-linecap="round" stroke-linejoin="round"/>
</svg>
